<svg width="256" height="256" viewBox="0 0 256 256" fill="none" xmlns="http://www.w3.org/2000/svg">
<rect width="256" height="256" fill="#D7D9DC"/>
<path d="M95.6426 79H142.812C146.564 79 149.975 80.5391 152.45 83.0272C154.924 85.5153 156.455 88.9443 156.455 92.7163V123.307C156.455 127.079 154.924 130.508 152.45 132.996C149.975 135.484 146.564 137.023 142.812 137.023H119.224L98.5059 154.926C97.5462 155.756 96.0947 155.644 95.2698 154.671C94.8652 154.193 94.6828 153.602 94.7225 153.02L95.825 137.015H95.6426C91.8909 137.015 88.4802 135.476 86.0055 132.988C83.5308 130.508 82 127.079 82 123.307V92.7163C82 88.9443 83.5308 85.5153 86.0055 83.0272C88.4723 80.5391 91.8829 79 95.6426 79ZM163.149 101.313C165.822 101.831 168.218 103.155 170.074 105.021C172.493 107.453 174 110.811 174 114.511V145.102C174 148.802 172.501 152.159 170.074 154.591C167.655 157.024 164.315 158.539 160.635 158.539H160.151L161.278 174.839C161.309 175.349 161.159 175.876 160.802 176.29C160.08 177.143 158.803 177.239 157.962 176.513L137.165 158.012H109.769L123.261 144.216H151.847C158.081 144.216 163.189 139.089 163.189 132.813V102.214C163.181 101.911 163.173 101.608 163.149 101.313ZM102.369 113.833C101.1 113.833 100.068 112.796 100.068 111.52C100.068 110.245 101.1 109.208 102.369 109.208H126.441C127.71 109.208 128.742 110.245 128.742 111.52C128.742 112.796 127.71 113.833 126.441 113.833H102.369ZM102.369 102.382C101.1 102.382 100.068 101.345 100.068 100.069C100.068 98.793 101.1 97.7563 102.369 97.7563H136.491C137.76 97.7563 138.791 98.793 138.791 100.069C138.791 101.345 137.76 102.382 136.491 102.382H102.369ZM142.805 83.6253H95.6426C93.1599 83.6253 90.8994 84.646 89.2575 86.2968C87.6157 87.9475 86.6004 90.2123 86.6004 92.7163V123.307C86.6004 125.803 87.6157 128.076 89.2575 129.726C90.8994 131.377 93.1599 132.398 95.6426 132.398H98.2917V132.406L98.4425 132.414C99.7036 132.502 100.663 133.602 100.576 134.87L99.6798 147.837L116.765 133.068C117.177 132.653 117.748 132.398 118.383 132.398H142.805C145.287 132.398 147.548 131.377 149.19 129.726C150.831 128.076 151.847 125.803 151.847 123.307V92.7163C151.847 90.2203 150.831 87.9475 149.19 86.2968C147.556 84.646 145.295 83.6253 142.805 83.6253Z" fill="#A4A6AA"/>
</svg>
